{"title":"Down.The.Shore.2011.BRRip XViD juggs","uid":8360378,"size":746851195,"categoryP":"video","categoryS":"movies","magnet":"?xt=urn:btih:110626f2284bdb28a20e167247f9266ad0557440&amp;dn=Down.The.Shore.2011.BRRip+XViD+juggs&amp;tr=udp%3A%2F%2Ftracker.openbittorrent.com%3A80&amp;tr=udp%3A%2F%2Fopen.demonii.com%3A1337&amp;tr=udp%3A%2F%2Ftracker.coppersurfer.tk%3A6969&amp;tr=udp%3A%2F%2Fexodus.desync.com%3A6969","seeders":2,"leechers":0,"uploader":"juggs99","files":3,"time":1365609138,"description":"Format : AVI\nFormat/Info : Audio Video Interleave\nFile size : 700 MiB\nDuration : 1h 33mn\nOverall bit rate : 1 051 Kbps\nWriting library : VirtualDub build 32842/release\n\nVideo\nID : 0\nFormat : MPEG-4 Visual\nFormat profile : Advanced Simple@L5\nFormat settings, BVOP : 2\nFormat settings, QPel : No\nFormat settings, GMC : No warppoints\nFormat settings, Matrix : Default (H.263)\nMuxing mode : Packed bitstream\nCodec ID : XVID\nCodec ID/Hint : XviD\nDuration : 1h 33mn\nBit rate : 914 Kbps\nWidth : 640 pixels\nHeight : 352 pixels\nDisplay aspect ratio : 16:9\nFrame rate : 23.976 fps\nColor space : YUV\nChroma subsampling : 4:2:0\nBit depth : 8 bits\nScan type : Progressive\nCompression mode : Lossy\nBits/(Pixel*Frame) : 0.169\nStream size : 609 MiB (87%)\nWriting library : XviD 1.2.0.dev47 (UTC 2006-11-01)\n\nAudio\nID : 1\nFormat : MPEG Audio\nFormat version : Version 1\nFormat profile : Layer 3\nCodec ID : 55\nCodec ID/Hint : MP3\nDuration : 1h 33mn\nBit rate mode : Constant\nBit rate : 128 Kbps\nChannel(s) : 2 channels\nSampling rate : 44.1 KHz\nCompression mode : Lossy\nStream size : 85.2 MiB (12%)\nAlignment : Split accross interleaves\nInterleave, duration : 42 ms (1.00 video frame)\nInterleave, preload duration : 500 ms\nWriting library : LAME3.99r\nEncoding settings : -m s -V 4 -q 3 -lowpass 17 -b 128\n\nSet on the Jersey shore, the lives of three childhood friends begin to unravel when a secret from their past is revealed.\n\n &lt;a href=&quot;\nhttp://www.shotpix.com/images/45131113405961206729.png&quot; rel=&quot;nofollow&quot; target=&quot;_NEW&quot;&gt;\nhttp://www.shotpix.com/images/45131113405961206729.png&lt;/a&gt; &lt;a href=&quot;\nhttp://www.shotpix.com/images/97673673872959960577.png&quot; rel=&quot;nofollow&quot; target=&quot;_NEW&quot;&gt;\nhttp://www.shotpix.com/images/97673673872959960577.png&lt;/a&gt; &lt;a href=&quot;\nhttp://www.shotpix.com/images/88942914256648329281.png&quot; rel=&quot;nofollow&quot; target=&quot;_NEW&quot;&gt;\nhttp://www.shotpix.com/images/88942914256648329281.png&lt;/a&gt;","torrent":{"xt":"urn:btih:110626f2284bdb28a20e167247f9266ad0557440","amp;dn":"Down.The.Shore.2011.BRRip+XViD+juggs","amp;tr":["udp%3A%2F%2Ftracker.openbittorrent.com%3A80","udp%3A%2F%2Fopen.demonii.com%3A1337","udp%3A%2F%2Ftracker.coppersurfer.tk%3A6969","udp%3A%2F%2Fexodus.desync.com%3A6969"],"infoHash":"110626f2284bdb28a20e167247f9266ad0557440","infoHashBuffer":{"type":"Buffer","data":[17,6,38,242,40,75,219,40,162,14,22,114,71,249,38,106,208,85,116,64]},"announce":[],"urlList":[]}}